<?xml version="1.0" standalone="no"?>
<!DOCTYPE svg PUBLIC "-//W3C//DTD SVG 20010904//EN"
 "http://www.w3.org/TR/2001/REC-SVG-20010904/DTD/svg10.dtd">
<svg version="1.0" xmlns="http://www.w3.org/2000/svg"
 width="677.000000pt" height="936.000000pt" viewBox="0 0 677.000000 936.000000"
 preserveAspectRatio="xMidYMid meet">

<g transform="translate(0.000000,936.000000) scale(0.100000,-0.100000)"
fill="#000000" stroke="none">
<path d="M3507 9233 c-446 -563 -847 -1174 -1172 -1790 l-104 -196 -7 39 c-10
55 -11 559 -1 801 8 193 8 202 -11 212 -39 21 -58 2 -130 -127 -325 -587 -624
-1256 -807 -1807 -283 -848 -289 -1354 -20 -1902 110 -226 254 -424 439 -608
340 -336 765 -553 1192 -610 131 -18 837 -21 979 -5 209 24 429 88 628 183
687 327 1180 1025 1226 1735 34 537 -182 1288 -673 2332 -170 361 -408 806
-435 813 -9 2 -27 0 -40 -5 l-24 -8 7 -143 c26 -572 15 -907 -41 -1142 -33
-143 -80 -215 -139 -215 -70 0 -224 149 -351 342 -195 295 -322 733 -362 1247
-15 180 -14 599 1 790 11 146 10 154 -7 167 -37 27 -54 16 -148 -103z m48
-471 c0 -235 5 -407 13 -477 81 -694 259 -1145 577 -1459 156 -155 265 -177
361 -74 45 47 72 106 100 214 44 174 58 347 58 717 1 185 2 337 4 337 7 0 338
-679 415 -852 327 -738 498 -1295 537 -1749 44 -502 -162 -1033 -563 -1456
-247 -260 -604 -478 -927 -567 -92 -25 -121 -28 -82 -7 34 18 101 78 148 133
96 112 160 264 189 454 22 135 16 486 -9 629 -81 450 -389 1045 -839 1618 -74
94 -103 108 -131 65 -11 -19 -12 -44 -4 -138 15 -195 -8 -481 -53 -648 -32
-121 -78 -229 -130 -306 -52 -79 -133 -160 -152 -153 -21 7 -46 93 -58 204 -7
69 -10 183 -6 314 6 222 5 229 -45 229 -24 0 -33 -10 -68 -72 -196 -347 -407
-859 -476 -1154 -31 -136 -42 -330 -24 -441 34 -214 148 -422 321 -589 85 -81
120 -108 203 -158 59 -35 59 -36 27 -36 -59 0 -274 48 -382 85 -859 297 -1468
1163 -1399 1991 37 451 210 1013 537 1752 91 205 408 852 418 852 3 0 3 -100
-1 -222 -9 -342 20 -732 58 -770 42 -42 58 -25 136 137 237 493 554 1020 926
1540 91 128 314 425 319 425 1 0 2 -165 2 -368z m42 -2784 c301 -422 511 -809
616 -1133 71 -221 92 -384 84 -665 -4 -167 -8 -209 -31 -294 -75 -286 -235
-446 -522 -523 -88 -23 -119 -26 -279 -27 -197 -1 -239 6 -379 64 -148 62
-312 191 -417 329 -70 92 -144 248 -170 356 -18 77 -20 110 -16 225 3 74 13
169 22 210 48 215 162 521 303 814 l87 180 7 -150 c11 -248 47 -371 122 -408
58 -29 104 -11 187 74 130 132 220 329 264 580 19 106 39 369 33 431 -3 27 -2
49 2 49 3 0 43 -51 87 -112z"/>
<path d="M637 3510 c-284 -48 -498 -223 -582 -474 -35 -103 -44 -259 -22 -363
31 -145 96 -268 190 -363 104 -105 154 -131 460 -232 152 -51 277 -95 277 -98
0 -3 -105 -41 -233 -84 -307 -104 -367 -136 -483 -251 -77 -76 -98 -105 -137
-185 -67 -136 -82 -199 -82 -355 0 -149 18 -225 86 -356 94 -181 270 -322 469
-376 90 -24 282 -24 365 1 33 9 597 195 1253 412 l1192 395 1224 -405 c746
-247 1252 -410 1297 -417 146 -23 296 2 439 73 117 58 257 196 317 313 70 135
88 210 88 360 0 156 -15 220 -82 355 -39 77 -63 111 -133 181 -134 136 -190
162 -587 275 -95 27 -169 51 -165 55 4 4 133 48 287 99 351 115 429 159 532
295 171 226 200 515 77 765 -39 77 -62 109 -128 175 -137 135 -298 201 -516
212 -145 7 -265 -7 -449 -52 -330 -81 -1038 -296 -1924 -584 l-276 -90 -253
88 c-1025 357 -1864 603 -2155 631 -115 11 -278 11 -346 0z m506 -124 c173
-37 398 -97 692 -186 430 -130 1385 -447 1385 -459 0 -4 -61 -27 -135 -51
l-134 -44 -400 135 c-395 133 -399 134 -420 115 -22 -20 -26 -42 -13 -64 5 -7
159 -64 342 -126 l333 -113 -499 -167 -499 -166 -610 206 c-335 112 -621 204
-635 202 -33 -4 -51 -51 -29 -73 9 -9 259 -98 557 -198 298 -101 544 -185 547
-189 3 -3 -107 -44 -246 -90 l-252 -85 -336 112 c-372 124 -408 141 -506 246
-113 122 -172 287 -162 459 4 86 35 210 56 233 4 4 314 -99 690 -228 375 -129
687 -235 693 -235 18 0 48 32 48 50 0 38 34 25 -1070 403 -162 55 -297 102
-299 104 -10 8 102 111 153 142 62 37 169 76 247 90 97 18 369 5 502 -23z
m5062 9 c105 -29 201 -82 273 -150 37 -35 65 -65 62 -67 -3 -3 -304 -107 -670
-233 -366 -125 -673 -235 -682 -243 -10 -8 -18 -22 -18 -30 0 -19 29 -52 46
-52 10 0 1091 368 1307 446 38 13 69 24 71 24 4 0 32 -68 48 -115 8 -24 13
-87 12 -160 0 -103 -4 -132 -27 -201 -30 -90 -85 -182 -146 -243 -98 -98 19
-56 -2652 -941 -1377 -455 -2505 -827 -2507 -825 -2 2 13 24 33 51 40 52 85
138 104 196 l12 37 357 119 c927 310 1118 376 1135 390 23 20 22 45 -4 68 -21
19 -28 17 -740 -222 l-719 -240 0 106 c0 118 -21 220 -66 321 -15 33 -25 61
-22 64 2 2 442 151 978 331 544 182 983 334 994 344 24 24 15 67 -17 75 -14 4
-371 -111 -1022 -330 l-999 -335 -51 54 c-87 95 -184 157 -314 201 l-65 21
390 133 c873 298 2080 697 2097 693 9 -2 32 5 50 16 33 20 125 51 622 210 935
300 1544 476 1750 506 67 10 321 -3 380 -19z m-482 -1516 l107 -32 -77 -31
c-100 -40 -183 -95 -259 -173 l-62 -62 -201 67 c-110 37 -201 69 -201 73 0 6
546 187 570 188 8 1 63 -13 123 -30z m-4773 -138 c138 -44 286 -160 359 -284
227 -385 29 -879 -395 -987 -401 -103 -794 214 -794 640 0 182 64 334 195 466
102 103 184 148 320 180 81 19 231 12 315 -15z m5246 1 c167 -53 317 -180 393
-333 218 -441 -92 -958 -575 -959 -229 0 -461 144 -562 350 -56 113 -75 194
-75 310 0 153 43 281 136 407 83 111 231 207 369 238 81 19 232 12 314 -13z
m-1073 -161 c136 -46 247 -86 247 -91 0 -4 -11 -32 -25 -62 -43 -95 -65 -201
-65 -318 l0 -106 -587 196 c-324 108 -595 199 -603 202 -16 5 758 268 775 264
6 -2 121 -40 258 -85z m-500 -462 c378 -127 687 -236 687 -241 0 -22 79 -176
114 -221 21 -27 36 -51 34 -52 -2 -2 -307 97 -678 221 -371 123 -794 263 -940
310 -146 47 -269 90 -273 94 -9 8 304 117 343 119 14 1 334 -103 713 -230z"/>
<path d="M4121 2745 c-265 -90 -489 -169 -497 -176 -31 -25 -10 -79 30 -79 33
0 985 320 1001 337 8 8 15 22 15 32 0 21 -30 51 -51 50 -8 0 -232 -74 -498
-164z"/>
<path d="M5192 2331 c-552 -186 -1008 -344 -1013 -352 -15 -24 -10 -48 14 -64
22 -14 80 4 1008 314 541 180 1001 335 1022 344 43 19 54 39 39 73 -9 17 -19
24 -39 23 -16 0 -480 -152 -1031 -338z"/>
<path d="M643 1566 c-79 -19 -157 -64 -214 -121 -104 -106 -144 -210 -137
-358 6 -110 31 -183 91 -262 209 -274 626 -232 773 79 168 353 -142 752 -513
662z m255 -122 c185 -91 260 -320 166 -507 -34 -66 -103 -133 -172 -165 -49
-23 -70 -27 -147 -27 -78 0 -97 4 -147 28 -74 36 -139 101 -175 175 -25 51
-28 67 -28 162 0 94 3 111 27 160 47 95 143 176 242 201 60 16 174 3 234 -27z"/>
<path d="M657 1346 c-140 -52 -203 -218 -134 -353 80 -155 296 -179 407 -45
128 154 24 400 -174 409 -35 2 -77 -3 -99 -11z m153 -104 c38 -20 80 -89 80
-132 0 -14 -9 -44 -20 -67 -50 -112 -210 -112 -260 0 -24 52 -25 75 -4 127 32
80 126 113 204 72z"/>
<path d="M5940 1569 c-72 -14 -167 -67 -225 -124 -182 -183 -183 -486 -2 -667
198 -199 513 -177 684 47 60 79 85 152 91 261 7 148 -29 245 -131 352 -111
115 -260 162 -417 131z m242 -123 c69 -32 141 -105 176 -176 24 -49 27 -66 27
-160 0 -95 -3 -111 -28 -162 -36 -74 -101 -139 -175 -175 -50 -24 -69 -28
-147 -28 -79 0 -97 4 -149 29 -218 107 -278 384 -126 576 37 47 117 99 179
117 69 19 177 10 243 -21z"/>
<path d="M5963 1354 c-182 -67 -234 -309 -97 -447 48 -47 97 -70 166 -75 111
-8 215 53 261 156 26 58 27 160 3 215 -23 51 -81 114 -130 139 -53 27 -148 33
-203 12z m150 -98 c67 -27 115 -115 102 -184 -15 -85 -82 -142 -167 -142 -75
0 -138 51 -158 128 -34 133 98 251 223 198z"/>
</g>
</svg>
