<?xml version="1.0" standalone="no"?>
<!DOCTYPE svg PUBLIC "-//W3C//DTD SVG 20010904//EN"
 "http://www.w3.org/TR/2001/REC-SVG-20010904/DTD/svg10.dtd">
<svg version="1.0" xmlns="http://www.w3.org/2000/svg"
 width="512.000000pt" height="397.000000pt" viewBox="0 0 512.000000 397.000000"
 preserveAspectRatio="xMidYMid meet">

<g transform="translate(0.000000,397.000000) scale(0.100000,-0.100000)"
fill="#000000" stroke="none">
<path d="M965 3883 c-10 -43 -39 -141 -66 -219 -140 -413 -366 -812 -597
-1056 l-54 -56 24 -15 c13 -8 75 -42 138 -77 63 -34 119 -66 124 -70 14 -14
-104 -215 -213 -360 -31 -41 -87 -108 -126 -148 -60 -64 -67 -76 -53 -86 8 -6
74 -42 147 -81 72 -38 131 -73 131 -77 0 -11 -96 -173 -161 -269 -64 -96 -138
-189 -208 -262 -45 -47 -46 -49 -26 -64 11 -8 78 -44 150 -78 131 -63 269
-113 380 -138 l60 -14 3 -166 2 -167 49 0 48 0 499 687 c274 378 509 701 521
718 l21 32 -55 69 c-62 78 -185 260 -232 345 l-32 57 33 20 c18 11 80 45 138
77 58 31 109 61 115 66 6 6 -13 33 -51 72 -274 283 -552 817 -674 1295 -6 23
-12 42 -14 42 -1 0 -11 -35 -21 -77z"/>
<path d="M4190 3408 c-121 -60 -240 -179 -298 -298 -57 -115 -73 -184 -73
-310 0 -188 64 -345 195 -476 81 -81 166 -133 275 -172 67 -23 91 -26 206 -26
114 0 140 4 210 27 107 36 171 75 255 153 66 63 148 170 137 180 -3 3 -23 -4
-44 -14 -120 -62 -306 -76 -443 -34 -196 61 -344 203 -418 400 -18 50 -26 93
-30 173 -7 152 21 259 98 378 22 34 34 61 27 61 -6 0 -50 -19 -97 -42z"/>
<path d="M1809 1688 l-974 -1343 -398 -3 -397 -2 0 -170 0 -170 2540 0 2540 0
-2 168 -3 167 -185 3 -185 3 -502 692 c-1214 1675 -1445 1992 -1452 1995 -4 1
-446 -602 -982 -1340z m1031 472 c44 -146 129 -357 214 -535 268 -557 608
-1009 930 -1236 l69 -49 -631 0 -632 0 1 983 c0 541 4 973 9 962 4 -11 23 -67
40 -125z"/>
</g>
</svg>
