<?xml version="1.0" standalone="no"?>
<!DOCTYPE svg PUBLIC "-//W3C//DTD SVG 20010904//EN"
 "http://www.w3.org/TR/2001/REC-SVG-20010904/DTD/svg10.dtd">
<svg version="1.0" xmlns="http://www.w3.org/2000/svg"
 width="175.000000pt" height="176.000000pt" viewBox="0 0 175.000000 176.000000"
 preserveAspectRatio="xMidYMid meet">

<g transform="translate(0.000000,176.000000) scale(0.100000,-0.100000)"
fill="#000000" stroke="none">
<path d="M799 1508 c5 -13 16 -36 25 -53 9 -16 16 -36 16 -43 0 -13 -87 -183
-139 -270 -17 -29 -31 -55 -31 -57 0 -3 -28 -50 -62 -105 -104 -166 -118 -190
-149 -254 -34 -67 -40 -79 -76 -144 -13 -24 -22 -50 -19 -58 6 -17 136 -102
163 -107 10 -2 25 -7 33 -10 37 -16 104 -37 116 -37 8 0 14 5 14 11 0 6 20 52
44 102 36 78 99 230 101 247 0 3 6 14 13 25 9 13 15 16 18 8 3 -7 16 -28 30
-48 13 -20 24 -39 24 -42 0 -7 142 -224 176 -270 l25 -33 52 21 c29 11 57 21
62 22 26 6 113 63 137 91 32 36 33 39 13 56 -8 7 -15 16 -15 20 0 4 -41 72
-91 151 -50 79 -99 157 -108 172 -9 15 -51 84 -93 153 -43 68 -78 129 -78 134
0 6 -4 10 -9 10 -4 0 -23 30 -41 68 -17 37 -37 76 -43 87 -36 68 -36 64 -12
113 14 28 20 51 14 56 -10 11 -38 -20 -39 -41 0 -25 -28 -13 -40 17 -15 36
-45 43 -31 8z"/>
</g>
</svg>
