<?xml version="1.0" standalone="no"?>
<!DOCTYPE svg PUBLIC "-//W3C//DTD SVG 20010904//EN"
 "http://www.w3.org/TR/2001/REC-SVG-20010904/DTD/svg10.dtd">
<svg version="1.0" xmlns="http://www.w3.org/2000/svg"
 width="188.000000pt" height="194.000000pt" viewBox="0 0 188.000000 194.000000"
 preserveAspectRatio="xMidYMid meet">

<g transform="translate(0.000000,194.000000) scale(0.100000,-0.100000)"
fill="#000000" stroke="none">
<path d="M388 1328 l-22 -16 57 -64 c31 -34 110 -119 177 -188 66 -69 120
-129 120 -135 0 -10 -182 -192 -318 -318 l-63 -58 20 -28 c22 -30 31 -31 239
-17 58 3 45 -6 205 147 49 46 93 86 98 88 12 4 145 -126 191 -186 l32 -43 162
0 c105 0 165 4 169 11 4 6 -28 47 -71 92 -44 45 -125 130 -181 189 -57 59
-103 112 -103 118 0 6 30 39 66 73 37 34 88 82 113 107 26 25 77 72 114 104
97 86 92 98 -47 103 -50 2 -115 8 -145 12 l-54 8 -91 -87 c-100 -97 -139 -130
-153 -130 -12 0 -58 50 -141 152 -73 90 -75 91 -240 86 -85 -2 -117 -7 -134
-20z"/>
</g>
</svg>
