<?xml version="1.0" standalone="no"?>
<!DOCTYPE svg PUBLIC "-//W3C//DTD SVG 20010904//EN"
 "http://www.w3.org/TR/2001/REC-SVG-20010904/DTD/svg10.dtd">
<svg version="1.0" xmlns="http://www.w3.org/2000/svg"
 width="306.000000pt" height="307.000000pt" viewBox="0 0 306.000000 307.000000"
 preserveAspectRatio="xMidYMid meet">

<g transform="translate(0.000000,307.000000) scale(0.100000,-0.100000)"
fill="#000000" stroke="none">
<path d="M1310 3020 c-289 -36 -550 -151 -767 -339 -400 -345 -573 -882 -452
-1401 93 -402 376 -756 753 -942 548 -271 1222 -155 1641 283 199 208 316 429
376 710 18 85 22 136 22 279 0 143 -4 194 -22 279 -75 354 -268 654 -557 868
-158 116 -386 214 -578 248 -112 19 -318 27 -416 15z"/>
</g>
</svg>
