<?xml version="1.0" standalone="no"?>
<!DOCTYPE svg PUBLIC "-//W3C//DTD SVG 20010904//EN"
 "http://www.w3.org/TR/2001/REC-SVG-20010904/DTD/svg10.dtd">
<svg version="1.0" xmlns="http://www.w3.org/2000/svg"
 width="276.000000pt" height="279.000000pt" viewBox="0 0 276.000000 279.000000"
 preserveAspectRatio="xMidYMid meet">

<g transform="translate(0.000000,279.000000) scale(0.100000,-0.100000)"
fill="#000000" stroke="none">
<path d="M1331 2644 c-14 -10 -90 -154 -205 -388 l-182 -372 -399 -58 c-220
-32 -414 -64 -432 -71 -37 -16 -51 -51 -33 -87 6 -12 144 -153 305 -313 l294
-290 -69 -395 c-38 -217 -69 -405 -70 -416 0 -12 10 -34 22 -49 17 -22 27 -26
52 -22 17 3 194 91 394 195 l362 190 362 -189 c200 -105 375 -193 391 -196 35
-7 65 18 72 61 3 17 -26 206 -65 426 l-69 395 293 290 c162 160 299 301 306
313 18 36 4 71 -33 87 -18 7 -212 39 -432 71 l-399 58 -182 372 c-204 415
-217 434 -283 388z"/>
</g>
</svg>
