<?xml version="1.0" standalone="yes"?>
<svg xmlns="http://www.w3.org/2000/svg" width="130" height="131">
<path style="fill:#ffffff; stroke:none;" d="M0 0L0 123C14.3367 112.9 32.8518 88.6613 36 71L47 73C37.6458 95.4978 21.6287 111.422 8 131L130 131L130 8L122 17L120 17L114 11L123 0L0 0z"/>
<path style="fill:#606060; stroke:none;" d="M123 0L125 2L123 0z"/>
<path style="fill:#ffffff; stroke:none;" d="M124 0L129 7L130 7L130 0L124 0z"/>
<path style="fill:#010101; stroke:none;" d="M114 9C114.968 10.3571 115.805 11.8174 117.138 12.8773C128.981 22.2921 130.887 -5.28934 119.025 4.14275C117.22 5.57738 115.629 7.37727 114 9z"/>
<path style="fill:#a0a0a0; stroke:none;" d="M125 2L126 3L125 2M126 3L127 4L126 3M127 4L128 5L127 4M78.6667 7.33334L79.3333 7.66666L78.6667 7.33334z"/>
<path style="fill:#606060; stroke:none;" d="M80 7L81 8L80 7z"/>
<path style="fill:#2f2f2f; stroke:none;" d="M81.6667 7.33334L82.3333 7.66666L81.6667 7.33334z"/>
<path style="fill:#010101; stroke:none;" d="M46 47C49.9555 47.734 54.6106 49.1491 56.8951 44.8519C63.0904 33.1977 67.0505 20.1078 82 17.4653C100.911 14.1224 119.981 37.1631 111.427 55C106.998 64.2377 97.3661 64.6829 94 75C118.353 74.9328 129.481 51.2328 120.535 30C113.06 12.257 89.7957 2.75369 72 9.93056C66.391 12.1926 61.524 16.1832 57.9244 21.0039C52.1528 28.7332 48.9542 37.9209 46 47z"/>
<path style="fill:#2f2f2f; stroke:none;" d="M87 7L88 8L87 7z"/>
<path style="fill:#606060; stroke:none;" d="M88.6667 7.33334L89.3333 7.66666L88.6667 7.33334z"/>
<path style="fill:#a0a0a0; stroke:none;" d="M90 7L91 8L90 7z"/>
<path style="fill:#2f2f2f; stroke:none;" d="M129 7L130 8L129 7z"/>
<path style="fill:#606060; stroke:none;" d="M75 8L76 9L75 8z"/>
<path style="fill:#2f2f2f; stroke:none;" d="M76 8L77 9L76 8M93 8L94 9L93 8z"/>
<path style="fill:#606060; stroke:none;" d="M94 8L95 9L94 8z"/>
<path style="fill:#a0a0a0; stroke:none;" d="M72 9L73 10L72 9z"/>
<path style="fill:#606060; stroke:none;" d="M97 9L98 10L97 9M70 10L71 11L70 10z"/>
<path style="fill:#2f2f2f; stroke:none;" d="M99 10L100 11L99 10z"/>
<path style="fill:#a0a0a0; stroke:none;" d="M100 10L101 11L100 10M114 10L115 11L114 10z"/>
<path style="fill:#606060; stroke:none;" d="M68 11L69 12L68 11z"/>
<path style="fill:#a0a0a0; stroke:none;" d="M102 11L103 12L102 11M104 12L105 13L104 12z"/>
<path style="fill:#606060; stroke:none;" d="M65 13L66 14L65 13z"/>
<path style="fill:#2f2f2f; stroke:none;" d="M105 13L106 14L105 13M64 14L65 15L64 14z"/>
<path style="fill:#a0a0a0; stroke:none;" d="M107 14L108 15L107 14z"/>
<path style="fill:#2f2f2f; stroke:none;" d="M108 15L109 16L108 15z"/>
<path style="fill:#a0a0a0; stroke:none;" d="M120.667 16.3333L121.333 16.6667L120.667 16.3333z"/>
<path style="fill:#2f2f2f; stroke:none;" d="M81 17L82 18L81 17z"/>
<path style="fill:#606060; stroke:none;" d="M82 17L83 18L82 17z"/>
<path style="fill:#a0a0a0; stroke:none;" d="M83 17L83 18L87 18L83 17z"/>
<path style="fill:#606060; stroke:none;" d="M87.6667 17.3333L88.3333 17.6667L87.6667 17.3333z"/>
<path style="fill:#2f2f2f; stroke:none;" d="M89 17L90 18L89 17z"/>
<path style="fill:#a0a0a0; stroke:none;" d="M111 17L112 18L111 17z"/>
<path style="fill:#606060; stroke:none;" d="M77 18L78 19L77 18z"/>
<path style="fill:#a0a0a0; stroke:none;" d="M78 18L79 19L78 18M92 18L93 19L92 18z"/>
<path style="fill:#2f2f2f; stroke:none;" d="M93 18L94 19L93 18z"/>
<path style="fill:#a0a0a0; stroke:none;" d="M112 18L113 19L112 18z"/>
<path style="fill:#2f2f2f; stroke:none;" d="M74 19L75 20L74 19z"/>
<path style="fill:#a0a0a0; stroke:none;" d="M75 19L76 20L75 19z"/>
<path style="fill:#606060; stroke:none;" d="M95 19L96 20L95 19M113 19L114 20L113 19M58 20L59 21L58 20z"/>
<path style="fill:#a0a0a0; stroke:none;" d="M73 20L74 21L73 20M97 20L98 21L97 20M114 20L115 21L114 20M57 21L58 22L57 21z"/>
<path style="fill:#606060; stroke:none;" d="M71 21L72 22L71 21z"/>
<path style="fill:#a0a0a0; stroke:none;" d="M99 21L100 22L99 21M115 21L116 22L115 21M70 22L71 23L70 22z"/>
<path style="fill:#2f2f2f; stroke:none;" d="M101 22L102 23L101 22z"/>
<path style="fill:#a0a0a0; stroke:none;" d="M102 23L103 24L102 23M55 24L56 25L55 24z"/>
<path style="fill:#606060; stroke:none;" d="M117 24L118 25L117 24z"/>
<path style="fill:#2f2f2f; stroke:none;" d="M54 26L55 27L54 26z"/>
<path style="fill:#a0a0a0; stroke:none;" d="M66 26L67 27L66 26z"/>
<path style="fill:#606060; stroke:none;" d="M65 27L66 28L65 27z"/>
<path style="fill:#a0a0a0; stroke:none;" d="M119 27L120 28L119 27M52 29L53 30L52 29M97 29L98 30L97 29z"/>
<path style="fill:#606060; stroke:none;" d="M108 29L109 30L108 29z"/>
<path style="fill:#a0a0a0; stroke:none;" d="M120 29L121 30L120 29z"/>
<path style="fill:#606060; stroke:none;" d="M63 30L64 31L63 30z"/>
<path style="fill:#010101; stroke:none;" d="M97 30C88.8588 44.6232 80.36 58.2118 74.4252 74C70.8351 83.5506 70.041 95.8103 63.6065 103.996C53.6542 116.657 37.0444 108.013 29 121C34.1846 122.942 39.4941 123.39 45 122.714C52.4406 121.8 60.963 120.272 66.9599 115.468C79.9196 105.086 81.4176 81.614 87.7191 67C91.8279 57.4712 110.339 36.8213 97 30z"/>
<path style="fill:#a0a0a0; stroke:none;" d="M51 31L52 32L51 31z"/>
<path style="fill:#2f2f2f; stroke:none;" d="M96 31L97 32L96 31z"/>
<path style="fill:#a0a0a0; stroke:none;" d="M109 31L110 32L109 31M121 31L122 32L121 31z"/>
<path style="fill:#2f2f2f; stroke:none;" d="M51 32L52 33L51 32z"/>
<path style="fill:#a0a0a0; stroke:none;" d="M62 32L63 33L62 32M95 32L96 33L95 32z"/>
<path style="fill:#2f2f2f; stroke:none;" d="M110 32L111 33L110 32z"/>
<path style="fill:#606060; stroke:none;" d="M121 32L122 33L121 32z"/>
<path style="fill:#2f2f2f; stroke:none;" d="M101 33L102 34L101 33z"/>
<path style="fill:#a0a0a0; stroke:none;" d="M110 33L111 34L110 33z"/>
<path style="fill:#606060; stroke:none;" d="M50 34L51 35L50 34z"/>
<path style="fill:#a0a0a0; stroke:none;" d="M61 34L62 35L61 34z"/>
<path style="fill:#2f2f2f; stroke:none;" d="M94 34L95 35L94 34z"/>
<path style="fill:#a0a0a0; stroke:none;" d="M102 34L103 35L102 34M122 34L123 35L122 34M93 35L94 36L93 35z"/>
<path style="fill:#606060; stroke:none;" d="M111 35L112 36L111 35M122 35L123 36L122 35z"/>
<path style="fill:#a0a0a0; stroke:none;" d="M49 36L50 37L49 36M60 36L61 37L60 36z"/>
<path style="fill:#606060; stroke:none;" d="M103 36L104 37L103 36M92 37L93 38L92 37z"/>
<path style="fill:#a0a0a0; stroke:none;" d="M48 38L49 39L48 38z"/>
<path style="fill:#606060; stroke:none;" d="M59 38L60 39L59 38M103 38L104 39L103 38M112 38L113 39L112 38z"/>
<path style="fill:#a0a0a0; stroke:none;" d="M123.333 38.6667L123.667 39.3333L123.333 38.6667z"/>
<path style="fill:#606060; stroke:none;" d="M48 39L49 40L48 39z"/>
<path style="fill:#a0a0a0; stroke:none;" d="M112 39L113 40L112 39z"/>
<path style="fill:#2f2f2f; stroke:none;" d="M58 40L59 41L58 40z"/>
<path style="fill:#606060; stroke:none;" d="M90 40L91 41L90 40M123 40L124 41L123 40z"/>
<path style="fill:#a0a0a0; stroke:none;" d="M47 41L48 42L47 41M58 41L59 42L58 41z"/>
<path style="fill:#606060; stroke:none;" d="M101 41L102 42L101 41z"/>
<path style="fill:#2f2f2f; stroke:none;" d="M123 41L124 42L123 41M47 42L48 43L47 42M89 42L90 43L89 42z"/>
<path style="fill:#606060; stroke:none;" d="M57 43L58 44L57 43z"/>
<path style="fill:#a0a0a0; stroke:none;" d="M88 43L89 44L88 43M46 44L47 45L46 44z"/>
<path style="fill:#606060; stroke:none;" d="M99 44L100 45L99 44z"/>
<path style="fill:#2f2f2f; stroke:none;" d="M113 44L113 47L114 47L113 44M46 45L47 46L46 45z"/>
<path style="fill:#a0a0a0; stroke:none;" d="M87 45L88 46L87 45M56 46L57 47L56 46M98 46L99 47L98 46M46 47L47 48L46 47z"/>
<path style="fill:#606060; stroke:none;" d="M47 47L48 48L47 47z"/>
<path style="fill:#2f2f2f; stroke:none;" d="M48 47L49 48L48 47z"/>
<path style="fill:#606060; stroke:none;" d="M86 47L87 48L86 47z"/>
<path style="fill:#2f2f2f; stroke:none;" d="M97 47L98 48L97 47z"/>
<path style="fill:#a0a0a0; stroke:none;" d="M52 48L53 49L52 48z"/>
<path style="fill:#606060; stroke:none;" d="M53 48L54 49L53 48z"/>
<path style="fill:#2f2f2f; stroke:none;" d="M54.6667 48.3333L55.3333 48.6667L54.6667 48.3333M85 49L86 50L85 49z"/>
<path style="fill:#606060; stroke:none;" d="M96 49L97 50L96 49z"/>
<path style="fill:#2f2f2f; stroke:none;" d="M123 49L124 50L123 49z"/>
<path style="fill:#606060; stroke:none;" d="M123 50L124 51L123 50z"/>
<path style="fill:#2f2f2f; stroke:none;" d="M84 51L85 52L84 51z"/>
<path style="fill:#a0a0a0; stroke:none;" d="M95 51L96 52L95 51M112 51L113 52L112 51M123.333 51.6667L123.667 52.3333L123.333 51.6667M83 52L84 53L83 52z"/>
<path style="fill:#606060; stroke:none;" d="M112 52L113 53L112 52z"/>
<path style="fill:#a0a0a0; stroke:none;" d="M94 53L95 54L94 53M35 54L35 55L43 55L35 54M82 54L83 55L82 54z"/>
<path style="fill:#2f2f2f; stroke:none;" d="M93 54L94 55L93 54M122 54L123 55L122 54z"/>
<path style="fill:#a0a0a0; stroke:none;" d="M29 55L30 56L29 55z"/>
<path style="fill:#606060; stroke:none;" d="M30 55L31 56L30 55z"/>
<path style="fill:#010101; stroke:none;" d="M8 100C16.4744 93.0954 13.4571 83.5182 18.9691 75.0008C30.1772 57.6815 50.2212 66.3827 66 70L70 61C57.3152 58.092 44.243 52.9854 31 55.4676C11.1937 59.18 0.328023 81.8469 8 100z"/>
<path style="fill:#2f2f2f; stroke:none;" d="M46 55L47 56L46 55z"/>
<path style="fill:#606060; stroke:none;" d="M47 55L48 56L47 55z"/>
<path style="fill:#a0a0a0; stroke:none;" d="M48.6667 55.3333L49.3333 55.6667L48.6667 55.3333z"/>
<path style="fill:#606060; stroke:none;" d="M111 55L112 56L111 55M122 55L123 56L122 55M26 56L27 57L26 56z"/>
<path style="fill:#2f2f2f; stroke:none;" d="M52 56L53 57L52 56z"/>
<path style="fill:#a0a0a0; stroke:none;" d="M53 56L54 57L53 56M81 56L82 57L81 56z"/>
<path style="fill:#2f2f2f; stroke:none;" d="M92 56L93 57L92 56z"/>
<path style="fill:#a0a0a0; stroke:none;" d="M23 57L24 58L23 57z"/>
<path style="fill:#2f2f2f; stroke:none;" d="M24 57L25 58L24 57M56 57L57 58L56 57z"/>
<path style="fill:#606060; stroke:none;" d="M57 57L58 58L57 57z"/>
<path style="fill:#a0a0a0; stroke:none;" d="M58 57L59 58L58 57z"/>
<path style="fill:#2f2f2f; stroke:none;" d="M81 57L82 58L81 57z"/>
<path style="fill:#a0a0a0; stroke:none;" d="M110 57L111 58L110 57M21 58L22 59L21 58z"/>
<path style="fill:#2f2f2f; stroke:none;" d="M60 58L61 59L60 58z"/>
<path style="fill:#a0a0a0; stroke:none;" d="M61 58L62 59L61 58M80 58L81 59L80 58z"/>
<path style="fill:#606060; stroke:none;" d="M91 58L92 59L91 58z"/>
<path style="fill:#a0a0a0; stroke:none;" d="M121 58L122 59L121 58z"/>
<path style="fill:#2f2f2f; stroke:none;" d="M20 59L21 60L20 59z"/>
<path style="fill:#606060; stroke:none;" d="M64 59L65 60L64 59z"/>
<path style="fill:#a0a0a0; stroke:none;" d="M65 59L66 60L65 59z"/>
<path style="fill:#2f2f2f; stroke:none;" d="M80 59L81 60L80 59z"/>
<path style="fill:#a0a0a0; stroke:none;" d="M18 60L19 61L18 60z"/>
<path style="fill:#2f2f2f; stroke:none;" d="M67 60L68 61L67 60z"/>
<path style="fill:#a0a0a0; stroke:none;" d="M68 60L69 61L68 60z"/>
<path style="fill:#2f2f2f; stroke:none;" d="M90 60L91 61L90 60z"/>
<path style="fill:#a0a0a0; stroke:none;" d="M120 60L121 61L120 60z"/>
<path style="fill:#606060; stroke:none;" d="M17 61L18 62L17 61M79 61L80 62L79 61z"/>
<path style="fill:#2f2f2f; stroke:none;" d="M16 62L17 63L16 62z"/>
<path style="fill:#a0a0a0; stroke:none;" d="M69 62L70 63L69 62z"/>
<path style="fill:#2f2f2f; stroke:none;" d="M89 62L90 63L89 62z"/>
<path style="fill:#a0a0a0; stroke:none;" d="M105 62L106 63L105 62M119 62L120 63L119 62z"/>
<path style="fill:#606060; stroke:none;" d="M78 63L79 64L78 63z"/>
<path style="fill:#a0a0a0; stroke:none;" d="M103 63L104 64L103 63z"/>
<path style="fill:#2f2f2f; stroke:none;" d="M118 63L119 64L118 63M35 64L36 65L35 64z"/>
<path style="fill:#606060; stroke:none;" d="M36 64L36 65L42 65L36 64z"/>
<path style="fill:#2f2f2f; stroke:none;" d="M42 64L43 65L42 64z"/>
<path style="fill:#a0a0a0; stroke:none;" d="M68 64L69 65L68 64z"/>
<path style="fill:#606060; stroke:none;" d="M101 64L102 65L101 64z"/>
<path style="fill:#2f2f2f; stroke:none;" d="M13 65L14 66L13 65M30 65L31 66L30 65z"/>
<path style="fill:#a0a0a0; stroke:none;" d="M31 65L32 66L31 65M46 65L47 66L46 65z"/>
<path style="fill:#606060; stroke:none;" d="M47 65L48 66L47 65z"/>
<path style="fill:#2f2f2f; stroke:none;" d="M48 65L49 66L48 65z"/>
<path style="fill:#a0a0a0; stroke:none;" d="M77 65L78 66L77 65M88 65L89 66L88 65z"/>
<path style="fill:#606060; stroke:none;" d="M97 65L98 66L97 65z"/>
<path style="fill:#2f2f2f; stroke:none;" d="M98 65L99 66L98 65z"/>
<path style="fill:#606060; stroke:none;" d="M12 66L13 67L12 66z"/>
<path style="fill:#a0a0a0; stroke:none;" d="M28 66L29 67L28 66M51 66L52 67L51 66z"/>
<path style="fill:#606060; stroke:none;" d="M52 66L53 67L52 66z"/>
<path style="fill:#2f2f2f; stroke:none;" d="M53 66L54 67L53 66z"/>
<path style="fill:#606060; stroke:none;" d="M67 66L68 67L67 66z"/>
<path style="fill:#2f2f2f; stroke:none;" d="M77 66L78 67L77 66z"/>
<path style="fill:#a0a0a0; stroke:none;" d="M116 66L117 67L116 66M11 67L12 68L11 67M26 67L27 68L26 67M55 67L56 68L55 67z"/>
<path style="fill:#606060; stroke:none;" d="M56 67L57 68L56 67M87 67L88 68L87 67M96 67L97 68L96 67z"/>
<path style="fill:#a0a0a0; stroke:none;" d="M115 67L116 68L115 67z"/>
<path style="fill:#2f2f2f; stroke:none;" d="M24 68L25 69L24 68z"/>
<path style="fill:#a0a0a0; stroke:none;" d="M59 68L60 69L59 68z"/>
<path style="fill:#2f2f2f; stroke:none;" d="M60 68L61 69L60 68M66 68L67 69L66 68z"/>
<path style="fill:#606060; stroke:none;" d="M76 68L77 69L76 68M10 69L11 70L10 69z"/>
<path style="fill:#a0a0a0; stroke:none;" d="M23 69L24 70L23 69M62 69L63 70L62 69z"/>
<path style="fill:#606060; stroke:none;" d="M63 69L64 70L63 69z"/>
<path style="fill:#a0a0a0; stroke:none;" d="M66 69L67 70L66 69z"/>
<path style="fill:#2f2f2f; stroke:none;" d="M86 69L87 70L86 69z"/>
<path style="fill:#a0a0a0; stroke:none;" d="M95 69L96 70L95 69M22 70L23 71L22 70M65 70L66 71L65 70M75 70L76 71L75 70M86 70L87 71L86 70z"/>
<path style="fill:#606060; stroke:none;" d="M95 70L96 71L95 70M111 70L112 71L111 70z"/>
<path style="fill:#2f2f2f; stroke:none;" d="M9 71L10 72L9 71z"/>
<path style="fill:#a0a0a0; stroke:none;" d="M21 71L22 72L21 71M36 71L36 72L40 72L36 71z"/>
<path style="fill:#2f2f2f; stroke:none;" d="M75 71L76 72L75 71z"/>
<path style="fill:#a0a0a0; stroke:none;" d="M110 71L111 72L110 71M20 72L21 73L20 72z"/>
<path style="fill:#010101; stroke:none;" d="M36 72C32.0008 85.8824 21.6701 99.0551 12.5648 110C9.85873 113.253 1.10589 120.286 2.34568 124.98C5.18974 135.747 16.4139 121.012 18.9992 118C29.3793 105.905 43.1252 89.1275 46 73L36 72z"/>
<path style="fill:#2f2f2f; stroke:none;" d="M43 72L44 73L43 72z"/>
<path style="fill:#606060; stroke:none;" d="M44 72L45 73L44 72z"/>
<path style="fill:#a0a0a0; stroke:none;" d="M45 72L46 73L45 72z"/>
<path style="fill:#606060; stroke:none;" d="M85 72L86 73L85 72z"/>
<path style="fill:#a0a0a0; stroke:none;" d="M94 72L95 73L94 72M108 72L109 73L108 72z"/>
<path style="fill:#2f2f2f; stroke:none;" d="M8 73L9 74L8 73M19 73L20 74L19 73M46 73L47 74L46 73z"/>
<path style="fill:#a0a0a0; stroke:none;" d="M74 73L75 74L74 73z"/>
<path style="fill:#2f2f2f; stroke:none;" d="M94 73L95 74L94 73M105 73L106 74L105 73z"/>
<path style="fill:#a0a0a0; stroke:none;" d="M106 73L107 74L106 73z"/>
<path style="fill:#2f2f2f; stroke:none;" d="M35 74L36 75L35 74z"/>
<path style="fill:#a0a0a0; stroke:none;" d="M46 74L47 75L46 74z"/>
<path style="fill:#2f2f2f; stroke:none;" d="M84 74L85 75L84 74M102 74L103 75L102 74z"/>
<path style="fill:#a0a0a0; stroke:none;" d="M103 74L104 75L103 74z"/>
<path style="fill:#606060; stroke:none;" d="M7 75L8 76L7 75z"/>
<path style="fill:#a0a0a0; stroke:none;" d="M18 75L19 76L18 75M84 75L85 76L84 75M93 75L94 76L93 75z"/>
<path style="fill:#2f2f2f; stroke:none;" d="M94.6667 75.3333L95.3333 75.6667L94.6667 75.3333z"/>
<path style="fill:#606060; stroke:none;" d="M96.6667 75.3333L97.3333 75.6667L96.6667 75.3333z"/>
<path style="fill:#a0a0a0; stroke:none;" d="M98.6667 75.3333L99.3333 75.6667L98.6667 75.3333z"/>
<path style="fill:#606060; stroke:none;" d="M34 76L35 77L34 76z"/>
<path style="fill:#a0a0a0; stroke:none;" d="M45 76L46 77L45 76z"/>
<path style="fill:#606060; stroke:none;" d="M73 76L74 77L73 76z"/>
<path style="fill:#a0a0a0; stroke:none;" d="M17 77L18 78L17 77z"/>
<path style="fill:#2f2f2f; stroke:none;" d="M83 77L84 78L83 77z"/>
<path style="fill:#606060; stroke:none;" d="M6 78L7 79L6 78M33 78L34 79L33 78M44 78L45 79L44 78z"/>
<path style="fill:#a0a0a0; stroke:none;" d="M83 78L84 79L83 78z"/>
<path style="fill:#2f2f2f; stroke:none;" d="M6 79L7 80L6 79z"/>
<path style="fill:#606060; stroke:none;" d="M16 79L17 80L16 79M72 79L73 80L72 79M32 80L33 81L32 80z"/>
<path style="fill:#2f2f2f; stroke:none;" d="M43 80L44 81L43 80M82 80L83 81L82 80z"/>
<path style="fill:#a0a0a0; stroke:none;" d="M5.33333 81.6667L5.66667 82.3333L5.33333 81.6667M82 81L83 82L82 81z"/>
<path style="fill:#606060; stroke:none;" d="M15 82L16 83L15 82M31 82L32 83L31 82z"/>
<path style="fill:#2f2f2f; stroke:none;" d="M42 82L43 83L42 82z"/>
<path style="fill:#a0a0a0; stroke:none;" d="M71 82L72 83L71 82z"/>
<path style="fill:#606060; stroke:none;" d="M5 83L6 84L5 83z"/>
<path style="fill:#a0a0a0; stroke:none;" d="M15.3333 83.6667L15.6667 84.3333L15.3333 83.6667M42 83L43 84L42 83z"/>
<path style="fill:#2f2f2f; stroke:none;" d="M71 83L72 84L71 83M81 83L82 84L81 83M5.33333 84.6667L5.66667 85.3333L5.33333 84.6667M30 84L31 85L30 84M41 84L42 85L41 84z"/>
<path style="fill:#a0a0a0; stroke:none;" d="M81 84L82 85L81 84M70 85L71 86L70 85z"/>
<path style="fill:#2f2f2f; stroke:none;" d="M40 86L41 87L40 86z"/>
<path style="fill:#606060; stroke:none;" d="M70 86L71 87L70 86z"/>
<path style="fill:#a0a0a0; stroke:none;" d="M28 87L29 88L28 87z"/>
<path style="fill:#606060; stroke:none;" d="M80 87L81 88L80 87M39 88L40 89L39 88z"/>
<path style="fill:#a0a0a0; stroke:none;" d="M80 88L81 89L80 88M15 89L15 92L16 92L15 89z"/>
<path style="fill:#606060; stroke:none;" d="M27 89L28 90L27 89z"/>
<path style="fill:#a0a0a0; stroke:none;" d="M69 89L70 90L69 89z"/>
<path style="fill:#2f2f2f; stroke:none;" d="M5 90L6 91L5 90z"/>
<path style="fill:#606060; stroke:none;" d="M38 90L39 91L38 90z"/>
<path style="fill:#2f2f2f; stroke:none;" d="M69 90L70 91L69 90M79 90L80 91L79 90z"/>
<path style="fill:#606060; stroke:none;" d="M5.33333 91.6667L5.66667 92.3333L5.33333 91.6667z"/>
<path style="fill:#a0a0a0; stroke:none;" d="M79 91L80 92L79 91z"/>
<path style="fill:#2f2f2f; stroke:none;" d="M14 92L15 93L14 92z"/>
<path style="fill:#a0a0a0; stroke:none;" d="M25 92L26 93L25 92M37 92L38 93L37 92M68 92L69 93L68 92M5 93L6 94L5 93z"/>
<path style="fill:#2f2f2f; stroke:none;" d="M36 93L37 94L36 93M68 93L69 94L68 93M78 93L79 94L78 93M24 94L25 95L24 94z"/>
<path style="fill:#a0a0a0; stroke:none;" d="M78 94L79 95L78 94M12 95L13 96L12 95M23 95L24 96L23 95M35 95L36 96L35 95M67 95L68 96L67 95z"/>
<path style="fill:#2f2f2f; stroke:none;" d="M6 96L7 97L6 96M11 96L12 97L11 96z"/>
<path style="fill:#606060; stroke:none;" d="M67 96L68 97L67 96z"/>
<path style="fill:#a0a0a0; stroke:none;" d="M6 97L7 98L6 97z"/>
<path style="fill:#2f2f2f; stroke:none;" d="M22 97L23 98L22 97z"/>
<path style="fill:#606060; stroke:none;" d="M77 97L78 98L77 97z"/>
<path style="fill:#a0a0a0; stroke:none;" d="M21 98L22 99L21 98z"/>
<path style="fill:#606060; stroke:none;" d="M33 98L34 99L33 98z"/>
<path style="fill:#a0a0a0; stroke:none;" d="M66 98L67 99L66 98M77 98L78 99L77 98z"/>
<path style="fill:#2f2f2f; stroke:none;" d="M7 99L8 100L7 99z"/>
<path style="fill:#a0a0a0; stroke:none;" d="M9 99L10 100L9 99z"/>
<path style="fill:#2f2f2f; stroke:none;" d="M66 99L67 100L66 99z"/>
<path style="fill:#a0a0a0; stroke:none;" d="M7 100L8 101L7 100z"/>
<path style="fill:#606060; stroke:none;" d="M8 100L9 101L8 100M76 100L77 101L76 100M19 101L20 102L19 101M31 101L32 102L31 101M65 101L66 102L65 101z"/>
<path style="fill:#a0a0a0; stroke:none;" d="M18 102L19 103L18 102z"/>
<path style="fill:#2f2f2f; stroke:none;" d="M64 103L65 104L64 103z"/>
<path style="fill:#a0a0a0; stroke:none;" d="M75 103L76 104L75 103M29 104L30 105L29 104M63 104L64 105L63 104z"/>
<path style="fill:#606060; stroke:none;" d="M16 105L17 106L16 105z"/>
<path style="fill:#2f2f2f; stroke:none;" d="M28 105L29 106L28 105z"/>
<path style="fill:#606060; stroke:none;" d="M74 105L75 106L74 105z"/>
<path style="fill:#a0a0a0; stroke:none;" d="M15 106L16 107L15 106z"/>
<path style="fill:#606060; stroke:none;" d="M73 107L74 108L73 107z"/>
<path style="fill:#a0a0a0; stroke:none;" d="M26 108L27 109L26 108M59 108L60 109L59 108z"/>
<path style="fill:#2f2f2f; stroke:none;" d="M25 109L26 110L25 109M58 109L59 110L58 109z"/>
<path style="fill:#a0a0a0; stroke:none;" d="M72 109L73 110L72 109z"/>
<path style="fill:#2f2f2f; stroke:none;" d="M12 110L13 111L12 110z"/>
<path style="fill:#a0a0a0; stroke:none;" d="M55 110L56 111L55 110z"/>
<path style="fill:#2f2f2f; stroke:none;" d="M56 110L57 111L56 110M71 110L72 111L71 110z"/>
<path style="fill:#a0a0a0; stroke:none;" d="M11 111L12 112L11 111M52 111L53 112L52 111z"/>
<path style="fill:#606060; stroke:none;" d="M53 111L54 112L53 111z"/>
<path style="fill:#a0a0a0; stroke:none;" d="M10 112L11 113L10 112M23 112L24 113L23 112M34.6667 112.333L35.3333 112.667L34.6667 112.333M47.6667 112.333L48.3333 112.667L47.6667 112.333z"/>
<path style="fill:#606060; stroke:none;" d="M49 112L50 113L49 112M22 113L23 114L22 113z"/>
<path style="fill:#2f2f2f; stroke:none;" d="M39 113L39 114L43 114L39 113z"/>
<path style="fill:#606060; stroke:none;" d="M33 114L34 115L33 114M65 116L66 117L65 116z"/>
<path style="fill:#2f2f2f; stroke:none;" d="M6 117L7 118L6 117z"/>
<path style="fill:#a0a0a0; stroke:none;" d="M19 117L20 118L19 117z"/>
<path style="fill:#2f2f2f; stroke:none;" d="M31 117L32 118L31 117M5 118L6 119L5 118z"/>
<path style="fill:#606060; stroke:none;" d="M18 118L19 119L18 118M30 118L31 119L30 118z"/>
<path style="fill:#a0a0a0; stroke:none;" d="M62 118L63 119L62 118z"/>
<path style="fill:#606060; stroke:none;" d="M4 119L5 120L4 119z"/>
<path style="fill:#2f2f2f; stroke:none;" d="M17 119L18 120L17 119z"/>
<path style="fill:#a0a0a0; stroke:none;" d="M29 119L30 120L29 119z"/>
<path style="fill:#2f2f2f; stroke:none;" d="M59 119L60 120L59 119z"/>
<path style="fill:#a0a0a0; stroke:none;" d="M60 119L61 120L60 119z"/>
<path style="fill:#606060; stroke:none;" d="M3 120L4 121L3 120z"/>
<path style="fill:#2f2f2f; stroke:none;" d="M16 120L17 121L16 120z"/>
<path style="fill:#a0a0a0; stroke:none;" d="M28.3333 120.667L28.6667 121.333L28.3333 120.667z"/>
<path style="fill:#2f2f2f; stroke:none;" d="M56 120L57 121L56 120z"/>
<path style="fill:#a0a0a0; stroke:none;" d="M57 120L58 121L57 120z"/>
<path style="fill:#606060; stroke:none;" d="M2 121L3 122L2 121M29 121L30 122L29 121z"/>
<path style="fill:#2f2f2f; stroke:none;" d="M52 121L53 122L52 121z"/>
<path style="fill:#a0a0a0; stroke:none;" d="M53.6667 121.333L54.3333 121.667L53.6667 121.333z"/>
<path style="fill:#606060; stroke:none;" d="M1 122L2 123L1 122z"/>
<path style="fill:#a0a0a0; stroke:none;" d="M32 122L33 123L32 122z"/>
<path style="fill:#606060; stroke:none;" d="M33 122L34 123L33 122z"/>
<path style="fill:#2f2f2f; stroke:none;" d="M46 122L47 123L46 122z"/>
<path style="fill:#606060; stroke:none;" d="M47 122L48 123L47 122z"/>
<path style="fill:#a0a0a0; stroke:none;" d="M48.6667 122.333L49.3333 122.667L48.6667 122.333z"/>
<path style="fill:#606060; stroke:none;" d="M0 123L1 124L0 123z"/>
<path style="fill:#a0a0a0; stroke:none;" d="M37 123L37 124L43 124L37 123M0 124L7 131L0 124M13 124L14 125L13 124z"/>
<path style="fill:#ffffff; stroke:none;" d="M0 125L0 131L6 131L0 125z"/>
<path style="fill:#a0a0a0; stroke:none;" d="M12 125L13 126L12 125M11 126L12 127L11 126z"/>
<path style="fill:#606060; stroke:none;" d="M10 127L11 128L10 127M9 128L10 129L9 128M8 129L9 130L8 129M7 130L8 131L7 130z"/>
</svg>
